# xmcd
#
# Track frame offsets:
#	225
#	7785
#	18005
#	26270
#	35795
#	45410
#	53182
#	65827
#	75415
#	89295
#	101412
#	112772
#	122515
#
# Disc length: 1763 seconds
#
# Revision: 1
# Processed by: cddbd v1.5.2PL0 Copyright (c) Steve Scherf et al.
# Submitted via: audiograbber 1.83.01
#
DISCID=8a06e00d
DTITLE=Various Artist - A Tribute To Christmas
DYEAR=1976
DGENRE=Easy Listening
TTITLE0=Joy To The World (Sunday Trombones)
TTITLE1=Away In A Manager (Sunday Pianos)
TTITLE2=While Shepherds Watched Their Flocks By Night (Sunday Singers)
TTITLE3=Over In Bethelem (Sunday Strings)
TTITLE4=Hark The Harold Angels Sing (Sunday Saxes)
TTITLE5=We Three Kings (Sunday Guitars)
TTITLE6=Star Of The East (Sunday Organ)
TTITLE7=Deck The Halls (Sunday Pianos)
TTITLE8=Thou Didst Leave Thy Throne (Sunday Strings)
TTITLE9=Do You Hear What I Hear? (Sunday Singers)
TTITLE10=O Come All Ye Faithful (Sunday Trombones)
TTITLE11=O Little Town Of Bethelem (Sunday Guitars)
TTITLE12=Silent Night (Sunday Saxes)
EXTD=
EXTT0=
EXTT1=
EXTT2=
EXTT3=
EXTT4=
EXTT5=
EXTT6=
EXTT7=
EXTT8=
EXTT9=
EXTT10=
EXTT11=
EXTT12=
PLAYORDER=
